:SAMPLES-PER-SECOND 30
:FRAME-RANGE 1-2045
:FULLY-SPECIFIED
:DEGREES
831
root  76.327 37.6648 19.0046 -175.438 0.365524 176.723
RightUpLeg  -32.4119 -15.0349 -9.52768
RightLeg  29.6902 -4.66449 -3.10222
RightFoot  -5.36483 -0.630944 11.3494
RightToes  5.82063e-011 0 -3.6325e-017
Spine  18.9211 -0.386549 -2.3429
Spine1  -1.37509 0.778353 -7.60762
HEad  -3.23282 15.2618 -4.88769
LeftShoulder1  1.5817 -0.966922 -29.311
LeftArm  4.5291 -0.971595 -35.0632
LeftForeArm  -0.0305059 -34.5964 -7.75281
LeftHand  0.104335 1.86144 -3.84144
RightShoulder  5.77302 10.5188 35.2382
RightArm  31.7986 1.28911 13.9056
RightForeArm  -32.7237 21.8695 7.6106
RightHand  0.331311 0.807754 6.14241
LeftUpLeg  -9.63303 9.55455 2.9217
LeftLeg  31.1916 2.40389 1.93222
LeftFoot  -22.1974 -1.00092 -11.8964
LeftToes  -3.90176e-010 -2.48536e-010 1.05482e-011
832
root  77.162 37.8745 17.3112 -175.314 1.40128 177.099
RightUpLeg  -30.8515 -12.1332 -10.4894
RightLeg  21.032 -5.93538 -2.72543
RightFoot  -3.06013 -0.819787 11.003
RightToes  5.82063e-011 0 -3.6325e-017
Spine  17.9946 -0.762978 -1.47514
Spine1  -1.49922 0.333051 -6.56502
HEad  -3.12302 17.5553 -6.10495
LeftShoulder1  1.55688 -0.935678 -28.9943
LeftArm  1.61971 -0.713855 -36.2267
LeftForeArm  4.28165 -39.5201 -8.97217
LeftHand  0.143725 1.06032 -4.06359
RightShoulder  4.5843 7.93677 34.172
RightArm  31.291 -1.81333 12.8941
RightForeArm  -33.5886 25.1863 6.87934
RightHand  0.368538 0.649807 7.03769
LeftUpLeg  -5.1204 10.425 5.37093
LeftLeg  27.811 1.73705 1.34339
LeftFoot  -20.7487 -1.11273 -14.9577
LeftToes  -3.90176e-010 -2.48536e-010 1.05482e-011
833
root  78.1427 37.8027 15.5257 -175.802 1.95062 177.522
RightUpLeg  -29.7954 -12.4679 -9.82834
RightLeg  20.6211 -6.18528 -2.77887
RightFoot  1.89142 -1.39596 12.1051
RightToes  5.82063e-011 0 -3.6325e-017
Spine  17.2001 -1.06928 -0.490971
Spine1  -1.33594 -0.0187779 -5.53714
HEad  -2.39509 19.2331 -7.15115
LeftShoulder1  1.53837 -0.91912 -28.7008
LeftArm  -0.309047 -0.707701 -37.3475
LeftForeArm  4.8045 -41.4468 -9.57756
LeftHand  0.152324 1.12794 -4.37717
RightShoulder  3.70811 5.90835 33.5173
RightArm  28.8519 -5.25283 11.9072
RightForeArm  -32.3737 28.1114 7.55422
RightHand  0.383359 0.323821 7.78185
LeftUpLeg  -1.34152 10.574 8.37689
LeftLeg  27.4668 0.832649 0.815716
LeftFoot  -19.4187 -1.25184 -19.2094
LeftToes  -3.90176e-010 -2.48536e-010 1.05482e-011
834
root  79.1618 37.5288 13.7756 -176.372 2.15181 178.564
RightUpLeg  -30.0427 -14.1519 -7.38567
RightLeg  27.8087 -3.77938 -2.39138
RightFoot  -2.00395 -0.906627 10.9028
RightToes  5.82063e-011 0 -3.6325e-017
Spine  16.8281 -1.62066 1.66517
Spine1  -1.31761 -0.405859 -4.5273
HEad  -1.67316 20.8992 -7.99358
LeftShoulder1  1.5364 -0.909778 -28.7303
LeftArm  -0.879847 -0.542003 -37.4395
LeftForeArm  5.34169 -40.6207 -9.26461
LeftHand  0.158905 1.18386 -4.62945
RightShoulder  3.03242 4.22903 33.3511
RightArm  27.6301 -8.01733 11.5768
RightForeArm  -31.1352 29.8154 7.94883
RightHand  0.395556 0.185008 8.42826
LeftUpLeg  0.11093 9.61247 11.889
LeftLeg  31.2051 1.19946 1.13517
LeftFoot  -16.7054 -1.01735 -23.5342
LeftToes  -3.90176e-010 -2.48536e-010 1.05482e-011
835
root  80.1547 37.2304 12.1063 -177.309 2.44945 179.366
RightUpLeg  -29.4972 -15.0007 -5.62925
RightLeg  34.1824 -2.32442 -1.95455
RightFoot  -6.33329 -0.433589 8.90973
RightToes  5.82063e-011 0 -3.6325e-017
Spine  16.9911 -2.19914 3.45366
Spine1  -1.19407 -0.709553 -3.88713
HEad  -1.74287 22.2624 -8.56886
LeftShoulder1  1.52213 -0.833984 -29.0147
LeftArm  -0.102163 0.129597 -36.8894
LeftForeArm  5.26625 -38.3033 -8.5284
LeftHand  0.138229 1.08014 -3.93574
RightShoulder  2.59124 2.96288 34.2207
RightArm  27.729 -9.17578 11.2819
RightForeArm  -30.7388 30.5229 8.12176
RightHand  0.394267 0.0719967 8.40658
LeftUpLeg  -0.710419 7.51402 13.9411
LeftLeg  38.5106 4.77102 4.43298
LeftFoot  -8.83806 0.515028 -20.9568
LeftToes  -3.90176e-010 -2.48536e-010 1.05482e-011
836
root  81.0243 36.8902 10.5317 -178.153 2.79565 -179.537
RightUpLeg  -28.1352 -15.5922 -3.93304
RightLeg  39.2001 -1.36352 -1.48189
RightFoot  -11.7996 -0.0458903 8.58152
RightToes  5.82063e-011 0 -3.6325e-017
Spine  17.0978 -2.75233 5.73637
Spine1  -0.590912 -0.883202 -2.81706
HEad  -1.84592 23.2042 -8.8859
LeftShoulder1  1.50395 -0.763491 -29.1703
LeftArm  2.60785 1.30346 -36.6963
LeftForeArm  4.27725 -34.4012 -7.45081
LeftHand  0.100762 0.93509 -2.79504
RightShoulder  2.55642 2.6626 35.5962
RightArm  28.2628 -9.40792 11.5026
RightForeArm  -31.6392 29.5744 7.90415
RightHand  0.408232 0.145643 8.57771
LeftUpLeg  -3.50369 5.06364 14.9037
LeftLeg  47.0789 6.41814 7.75022
LeftFoot  1.787 0.880845 -7.74213
LeftToes  -3.90176e-010 -2.48536e-010 1.05482e-011
837
root  81.8435 36.7984 8.95579 -178.629 3.74953 -179.191
RightUpLeg  -25.8736 -14.1883 -3.10886
RightLeg  41.6363 -1.50709 -1.74194
RightFoot  -15.8428 0.230652 8.59302
RightToes  5.82063e-011 0 -3.6325e-017
Spine  16.7124 -2.69547 6.62991
Spine1  -0.0760516 -0.653274 -2.27769
HEad  -1.87296 23.8556 -9.5468
LeftShoulder1  1.46184 -0.568905 -29.8292
LeftArm  7.37897 2.55021 -36.3283
LeftForeArm  2.13032 -29.8883 -6.39242
LeftHand  0.0813656 0.643192 -2.10008
RightShoulder  2.89434 3.11881 37.7782
RightArm  28.9853 -8.74763 11.7166
RightForeArm  -33.6147 27.9653 7.56092
RightHand  0.393403 0.0532861 8.4196
LeftUpLeg  -6.84491 4.16286 14.1712
LeftLeg  54.212 3.42477 5.57397
LeftFoot  -0.467813 0.612658 -6.40482
LeftToes  -3.90176e-010 -2.48536e-010 1.05482e-011
838
root  82.5987 36.9157 7.36735 -178.963 4.93394 -179.132
RightUpLeg  -22.6836 -12.2628 -2.55833
RightLeg  41.8989 -1.898 -2.1341
RightFoot  -18.7115 0.414714 8.39916
RightToes  5.82063e-011 0 -3.6325e-017
Spine  16.4782 -2.41911 7.21723
Spine1  0.050557 -0.295487 -2.08701
HEad  -1.57758 24.2382 -10.0121
LeftShoulder1  1.42218 -0.409523 -30.2816
LeftArm  14.1086 4.33537 -36.2623
LeftForeArm  -2.27504 -25.211 -5.51589
LeftHand  0.1006 -0.0455985 -2.16228
RightShoulder  3.49323 3.9782 40.6185
RightArm  30.0111 -7.25408 12.1749
RightForeArm  -35.9811 25.9133 7.13319
RightHand  0.391209 0.0992528 8.29646
LeftUpLeg  -10.4137 4.24553 12.1456
LeftLeg  58.2004 1.04842 2.36019
LeftFoot  -2.29243 0.588224 -7.25442
LeftToes  -3.90176e-010 -2.48536e-010 1.05482e-011
